<svg xmlns="http://www.w3.org/2000/svg" viewBox="0 0 112.22 43.45"><defs><style>.cls-1{fill:#fff;}</style></defs><title>game-condition-SOLO</title><g id="Livello_2" data-name="Livello 2"><g id="Livello_1-2" data-name="Livello 1"><path class="cls-1" d="M30,13.42H23.89C22,13.42,20.75,15,20.75,17v7.81h2v-7.6h1v7.6h6.47v-7.6h1v7.6h2V17c0-1.81-1.06-3.59-3.18-3.59"/><path class="cls-1" d="M27,12.64A3.62,3.62,0,1,0,23.35,9,3.62,3.62,0,0,0,27,12.64"/><path class="cls-1" d="M8.64,7.78A3.89,3.89,0,1,0,4.75,3.89,3.89,3.89,0,0,0,8.64,7.78"/><path class="cls-1" d="M13.2,8.59H4.48c-2.76,0-4.48,2.24-4.48,5V24.77H3.07V14H4V24.77h9.69V14h.95V24.77h3V13.71c0-2.59-1.52-5.12-4.54-5.12"/><path class="cls-1" d="M8.42,32.49c0-.34,2.2-.84,3-.84a.94.94,0,0,1,.43.09l-.18,7.18h.82a7.58,7.58,0,0,0,.9-.06c0,1.25,0,1.6-.37,1.6H8.11c0-.37,0-.71,0-1.09s.5-.45,1.86-.45l.14-5.6a8.11,8.11,0,0,0-1.4.18,1.9,1.9,0,0,1-.25-1"/><path class="cls-1" d="M16.92,33.81a14.54,14.54,0,0,0-1.63,3.62H16.7Zm2.32,3.55a1.13,1.13,0,0,1,.07.56c0,.56-.17,1-.54,1h-.43v1c0,.47,0,.47-1.64.47V39H14.45a2.21,2.21,0,0,1-.55-1.57c0-.53,2.12-5,2.83-5.58a1.08,1.08,0,0,1,.7-.26,2,2,0,0,1,1,.22l-.05,5.66a6,6,0,0,0,.9-.07"/><path class="cls-1" d="M25,35.61c0,1,0,1.41-.3,1.41H23.17v1.57c0,.3-.44.3-1.41.3V37H19.9c0-1,0-1.41.29-1.41h1.57V34c0-.29.44-.29,1.41-.29v1.86Z"/><path class="cls-1" d="M49.9,1.62H59V4.68H49.9ZM59,16.48v1.17H49.9V16.44l4.41-2.94ZM45.26,1.62h3v7A.81.81,0,0,0,48.3,9a.79.79,0,0,0,.34.53l3,1.72,1.55,1-4.51,3.09a.44.44,0,0,0-.11.09.78.78,0,0,0-.22.38,1.13,1.13,0,0,0-.09.41v7h-3v1.61H63.57V23.16h-2.9V16a.82.82,0,0,0-.37-.68l-4.63-2.94L60.3,9.5a.81.81,0,0,0,.37-.68V1.62h2.9V0H45.26Z"/><path class="cls-1" d="M41.37,32.49c0-.34,2.2-.84,3-.84a.87.87,0,0,1,.42.09l-.17,7.18h.82a7.52,7.52,0,0,0,.89-.06c0,1.25,0,1.6-.36,1.6H41.06c0-.37-.05-.71-.05-1.09s.5-.45,1.87-.45l.13-5.6a8.08,8.08,0,0,0-1.39.18,1.9,1.9,0,0,1-.25-1"/><path class="cls-1" d="M51.23,33.1C50.51,33.1,49,33,49,33l-.17,1.82a3.27,3.27,0,0,1,.63-.06c1.1,0,2.64.28,2.64,2.83s-1.23,4.31-3.4,4.31c-1.21,0-1.63-.41-1.63-.61A3.86,3.86,0,0,1,47.19,40a1.7,1.7,0,0,0,1.25.43c1.25,0,1.85-1.34,1.85-2.38,0-1.45-.29-1.89-1.89-1.89a5.49,5.49,0,0,0-1.29.16l.45-4.64h4.49c0,1.19-.09,1.45-.82,1.45"/><path class="cls-1" d="M53.21,35.61h2.7c0,1,0,1.41-.29,1.41h-2.7c0-1,0-1.41.29-1.41"/><path class="cls-1" d="M61.77,38.24c0,2.66-1.53,3.69-3.33,3.69-1.06,0-1.52-.3-1.52-.8a4.06,4.06,0,0,1,.21-1.2,1.94,1.94,0,0,0,1.31.42c1.05,0,1.54-.8,1.54-2S58.92,36.94,57.73,37V36c1.23-.49,1.82-1.28,1.82-2,0-.43-.08-.78-.77-.78a4.22,4.22,0,0,0-1.73.44v0a3.15,3.15,0,0,1-.2-1.21c0-.45,1-.82,2.55-.82s2,.78,2,1.78A3.16,3.16,0,0,1,60,36.07a1.94,1.94,0,0,1,1.76,2.17"/><path class="cls-1" d="M65.17,39.12c.6,0,.9-.91.9-3.55,0-1.57-.17-2.48-.84-2.48s-.92,1.2-.92,3.08c0,2.22.1,2.95.86,2.95m0-7.47c1.88,0,2.66,1.35,2.66,3.92,0,3.35-.57,5-2.69,5s-2.6-1.69-2.6-4.48.78-4.46,2.63-4.46"/><path class="cls-1" d="M78.81,39.53c0-.17.14-.29.41-.35a6.89,6.89,0,0,1,1.45-.1l.13-5.55a5.74,5.74,0,0,0-.88.08l-.52.09a2,2,0,0,1-.24-1c0-.11.18-.23.56-.35A10.19,10.19,0,0,1,81,32a6.64,6.64,0,0,1,1.1-.14l.25,0a.39.39,0,0,1,.17.07l-.17,7.1h.81l.54,0A2.17,2.17,0,0,0,84,39c0,.48,0,.81,0,1a1,1,0,0,1-.09.43.25.25,0,0,1-.24.13H78.85C78.82,40.22,78.81,39.87,78.81,39.53Z"/><path class="cls-1" d="M87.05,43.3a.71.71,0,0,1-.18-.56v-9a3.73,3.73,0,0,1,1-.41A4.21,4.21,0,0,1,89,33.19a2.29,2.29,0,0,1,1.74.64,3.47,3.47,0,0,1,.59,2.31A13,13,0,0,1,91.11,39a2.76,2.76,0,0,1-.66,1.38,1.48,1.48,0,0,1-1,.36,1.51,1.51,0,0,1-1-.27v2.85a2.29,2.29,0,0,1-.83.14A.9.9,0,0,1,87.05,43.3Zm2.18-4.2a2.45,2.45,0,0,0,.23-.89,16.1,16.1,0,0,0,.09-2,6.78,6.78,0,0,0-.06-1.05.9.9,0,0,0-.2-.49.49.49,0,0,0-.36-.13.72.72,0,0,0-.45.18V39a.57.57,0,0,0,.42.27A.39.39,0,0,0,89.23,39.1Z"/><path class="cls-1" d="M92.13,30.64a.77.77,0,0,1,.13-.5.69.69,0,0,1,.43-.17,8.49,8.49,0,0,1,1,0V40.3c0,.11,0,.18-.07.21a1.37,1.37,0,0,1-.46.06l-1.08,0Z"/><path class="cls-1" d="M95.52,40.57a1.36,1.36,0,0,1-.72-.65,3.14,3.14,0,0,1-.27-1.45A2.87,2.87,0,0,1,95,36.59a1.58,1.58,0,0,1,1.22-.51,2.9,2.9,0,0,1,.48.05,1.14,1.14,0,0,1,.45.17v-1a.54.54,0,0,0-.14-.42.66.66,0,0,0-.47-.13,5,5,0,0,0-.9.08,5.1,5.1,0,0,0-.86.22,2.05,2.05,0,0,1-.21-.93,1,1,0,0,1,0-.29.61.61,0,0,1,.15-.22,2.4,2.4,0,0,1,.78-.28,6.31,6.31,0,0,1,1.38-.14,2,2,0,0,1,1.41.4A1.86,1.86,0,0,1,98.75,35v.68c0,2.37,0,3.92-.08,4.63a4,4,0,0,1-2.08.46A3.09,3.09,0,0,1,95.52,40.57Zm1.59-1.3c0-.22,0-.85,0-1.88a.56.56,0,0,0-.39-.14.43.43,0,0,0-.4.26,2.34,2.34,0,0,0-.13.92,1.92,1.92,0,0,0,.11.76.36.36,0,0,0,.37.22A.51.51,0,0,0,97.11,39.27Z"/><path class="cls-1" d="M99.15,43.2a.62.62,0,0,1-.29-.54,1.94,1.94,0,0,1,.06-.46,1.61,1.61,0,0,1,.15-.41,1.07,1.07,0,0,0,.4.18,2.71,2.71,0,0,0,.58.07.55.55,0,0,0,.47-.27,2.36,2.36,0,0,0,.27-1L99.2,33.76c0-.12,0-.18,0-.2a.16.16,0,0,1,.12-.16,1.73,1.73,0,0,1,.51,0h1l.43,2.54c.09.52.17,1.09.23,1.71s.11,1,.13,1.2c0-.18.05-.58.11-1.19s.13-1.19.2-1.72l.29-2.09a.54.54,0,0,1,.12-.33.81.81,0,0,1,.39-.1l1.2,0-1.62,7.58a6.93,6.93,0,0,1-.46,1.5,1.74,1.74,0,0,1-.63.74,1.88,1.88,0,0,1-1,.23A2.14,2.14,0,0,1,99.15,43.2Z"/><path class="cls-1" d="M108.21,38.76a3.71,3.71,0,0,1,.13,1.08c0,.28-.19.5-.58.65a3.9,3.9,0,0,1-1.47.24,2,2,0,0,1-1.67-.74,4.52,4.52,0,0,1-.58-2.68,7.48,7.48,0,0,1,.34-2.56,2.31,2.31,0,0,1,.89-1.24,2.63,2.63,0,0,1,1.32-.32q1.86,0,1.86,2.37a8.31,8.31,0,0,1-.21,2.06,15.28,15.28,0,0,1-2.52.2,2.15,2.15,0,0,0,.25,1,.77.77,0,0,0,.71.31A3.58,3.58,0,0,0,108.21,38.76Zm-2.31-3.7a6.06,6.06,0,0,0-.18,1.5,3.17,3.17,0,0,0,1.09-.13,2.71,2.71,0,0,0,.07-.76,2.33,2.33,0,0,0-.1-.87.4.4,0,0,0-.39-.21C106.17,34.59,106,34.75,105.9,35.06Z"/><path class="cls-1" d="M109.23,33.85a3.6,3.6,0,0,1,2-.66,1.25,1.25,0,0,1,.76.17.68.68,0,0,1,.21.56,2.93,2.93,0,0,1-.16.93,1.19,1.19,0,0,0-.54-.12,1,1,0,0,0-.32.06,1.41,1.41,0,0,0-.32.17V40.3a.26.26,0,0,1-.07.21,1.48,1.48,0,0,1-.48.06l-1.09,0Z"/><polygon class="cls-1" points="92.02 18.06 94.9 18.06 94.9 24.78 95.65 24.78 96.53 24.78 105.35 24.78 106.11 24.78 106.98 24.78 106.98 18.06 109.79 18.06 109.79 16.49 92.02 16.49 92.02 18.06"/><path class="cls-1" d="M87.81,8.59H84.06a3,3,0,0,0-3,3V24.78h9.69V11.56a3,3,0,0,0-3-3"/><path class="cls-1" d="M85.94,7.78a3.89,3.89,0,1,0-3.89-3.89,3.89,3.89,0,0,0,3.89,3.89"/></g></g></svg>