<?xml version="1.0" encoding="utf-8"?>
<!-- Generator: Adobe Illustrator 23.0.6, SVG Export Plug-In . SVG Version: 6.00 Build 0)  -->
<svg version="1.1" id="Livello_1" xmlns="http://www.w3.org/2000/svg" xmlns:xlink="http://www.w3.org/1999/xlink" x="0px" y="0px"
	 viewBox="0 0 99.5 113.4" style="enable-background:new 0 0 99.5 113.4;" xml:space="preserve">
<style type="text/css">
	.st0{fill:#FFFFFF;}
</style>
<title>volfyirion-token</title>
<g>
	<g id="Layer_1">
		<path class="st0" d="M12.6,25.9l3.1-6.3c0.1-0.1,0.2-0.2,0.3-0.3c1.9-0.5,14.1-3.9,14.6-7.6c0-0.2,0.2-0.4,0.4-0.5
			c8.5-3.1,12.4-8.5,19-11.1c0.3-0.1,0.6,0,0.7,0.3c0.1,0.2,0,0.5-0.1,0.6c-3.3,3.1-5.7,6.6-4.2,7.9c1.7,1.5,11.7-6.4,28.1-1
			c0.3,0.1,0.5,0.4,0.4,0.7c-0.1,0.2-0.3,0.4-0.5,0.4c-5.7,0.5-11.4,2.5-11.5,4.9c-0.2,2.6,22.5,7.2,24.4,23.4
			c0.1,0.3-0.1,0.6-0.4,0.7c-0.2,0.1-0.5,0-0.6-0.2c-3.8-3.9-9.8-9.2-12.8-5.4s7.8,12.9,9.3,21.2c0.1,0.3-0.2,0.6-0.5,0.6
			c-0.2,0-0.4,0-0.5-0.2c-5.4-7-13.3-9-16-5.4C60.4,55.6,80.7,63.8,83.5,75c0.1,0.3-0.1,0.6-0.4,0.7c-0.2,0.1-0.4,0-0.5-0.1
			c-6.3-6.4-12-6.1-13.1-1.5c-2.1,8.8,27.9,9.4,30,27.1c0,0.3-0.2,0.6-0.5,0.6c-0.2,0-0.3,0-0.4-0.1c-4.2-3.8-10.8-8.1-12.7-4.2
			c-2.1,4.2,11.1,13.8,11.1,16H64.3c0,0-3-12.9-8.6-18c-0.2-0.2-0.6-0.2-0.8,0c-1.4,1.5-2.7,3.1-3.7,4.8c-0.2,0.3-0.5,0.3-0.8,0.2
			c0,0-0.1-0.1-0.1-0.1c-1.7-1.9-7.5-7.9-13.8-9.8c-0.3-0.1-0.6,0.1-0.7,0.4c0,0,0,0.1,0,0.1c-0.1,7.8,8.1,21.9,8.1,22.4h-2.9
			c0,0-16-9.3-17.3-36.8c0-0.3,0.2-0.6,0.5-0.6c0.1,0,0.2,0,0.3,0.1c7.2,4.2,17.9,10.6,21.6,7.8c3.3-2.6-3.3-9.7-5.3-11.7
			c-0.2-0.2-0.5-0.2-0.7,0c0,0-0.1,0.1-0.1,0.1l-2,3.4c-0.1,0.3-0.5,0.4-0.7,0.2c-0.1,0-0.1-0.1-0.1-0.1c-2.8-2.9-17.8-14.4-19.8-12
			c-1,1.2,0.5,4,1,4.8c0.1,0.2,0.1,0.4,0,0.6c-3.1,4.2-12.5,22.5-14.2,44.1h-2c0,0-9.3-30.9,10.6-63.8c0.2-0.3,0.5-0.3,0.8-0.2
			c0,0,0,0,0,0c5.3,4,13.4,9.7,22.9,11.3c0.3,0,0.6-0.1,0.6-0.4c4.6-19.8,14.3-15.2,15.6-27c1.2-11.5-11.7-11.9-9-6.3
			c0.1,0.3,0,0.6-0.2,0.7c-0.1,0-0.1,0-0.2,0.1c-6.5,1-15.6,5.4-17.5,6.9c-0.1,0.1-0.3,0.1-0.4,0.1c-1.6-0.2-3.9-0.4-5-0.5
			c-0.3,0-0.5-0.3-0.5-0.6c0,0,0-0.1,0-0.1c0.2-0.9,0.7-2.4,1-3.5c0.1-0.3,0.4-0.5,0.7-0.4c0.1,0,0.2,0.1,0.2,0.1
			c1.5,1.6,3.5,2.4,12.3-5.7c0.2-0.2,0.2-0.6,0-0.8c-0.1-0.1-0.1-0.1-0.2-0.1c-1.7-0.6-3.1-1-3.6-1.2c-0.1,0-0.2,0-0.3,0l-11.6,3.5
			c-0.2,0.1-0.4,0.3-0.4,0.6l0.2,2.1c0,0.3-0.2,0.6-0.5,0.6c-0.1,0-0.2,0-0.3-0.1l-4.4-2.1C12.5,26.5,12.4,26.2,12.6,25.9
			C12.6,25.9,12.6,25.9,12.6,25.9z"/>
	</g>
</g>
</svg>
