<svg xmlns="http://www.w3.org/2000/svg" viewBox="0 0 115.25 41.93"><defs><style>.cls-1{fill:#fff;}</style></defs><title>game-conditions-main-ruleb</title><g id="Livello_2" data-name="Livello 2"><g id="Livello_1-2" data-name="Livello 1"><path class="cls-1" d="M30,13.42H23.89C22,13.42,20.75,15,20.75,17v7.82h2V17.17h1v7.61h6.47V17.17h1v7.61h2V17c0-1.81-1.06-3.59-3.18-3.59"/><path class="cls-1" d="M27,12.64A3.62,3.62,0,1,0,23.35,9,3.62,3.62,0,0,0,27,12.64"/><path class="cls-1" d="M8.64,7.78A3.89,3.89,0,1,0,4.75,3.89,3.89,3.89,0,0,0,8.64,7.78"/><path class="cls-1" d="M13.2,8.59H4.48c-2.76,0-4.48,2.24-4.48,5V24.77H3.07V14H4V24.77h9.69V14h.95V24.77h3V13.7c0-2.58-1.52-5.11-4.54-5.11"/><path class="cls-1" d="M8.42,32.49c0-.34,2.2-.84,3-.84a.94.94,0,0,1,.43.09l-.18,7.18h.82a7.58,7.58,0,0,0,.9-.06c0,1.25,0,1.6-.37,1.6H8.11c0-.37,0-.71,0-1.09s.5-.45,1.86-.45l.14-5.6a8.11,8.11,0,0,0-1.4.18,1.9,1.9,0,0,1-.25-1"/><path class="cls-1" d="M16.92,33.81a14.54,14.54,0,0,0-1.63,3.62H16.7Zm2.32,3.55a1.13,1.13,0,0,1,.07.56c0,.56-.17,1-.54,1h-.43v1c0,.47,0,.47-1.64.47V39H14.45a2.21,2.21,0,0,1-.55-1.57c0-.53,2.12-5,2.83-5.58a1.08,1.08,0,0,1,.7-.26,2,2,0,0,1,1,.22l-.05,5.66a6,6,0,0,0,.9-.07"/><path class="cls-1" d="M25,35.61c0,1,0,1.41-.3,1.41H23.17v1.57c0,.3-.44.3-1.41.3V37H19.9c0-1,0-1.41.29-1.41h1.57V34c0-.29.44-.29,1.41-.29v1.86Z"/><path class="cls-1" d="M112.28,8.75h-3.75a3,3,0,0,0-3,2.94v13h9.69v-13a3,3,0,0,0-3-2.94"/><path class="cls-1" d="M110.4,7.78a3.89,3.89,0,1,0-3.89-3.89,3.89,3.89,0,0,0,3.89,3.89"/><polygon class="cls-1" points="86.56 18.06 89.43 18.06 89.43 24.78 90.18 24.78 91.06 24.78 99.88 24.78 100.65 24.78 101.52 24.78 101.52 18.06 104.33 18.06 104.33 16.49 86.56 16.49 86.56 18.06"/><path class="cls-1" d="M82.34,8.59H78.59a3,3,0,0,0-3,3V24.78h9.69V16.5s0,0,0-.06V11.56a3,3,0,0,0-3-3"/><path class="cls-1" d="M80.47,7.78a3.89,3.89,0,1,0-3.89-3.89,3.89,3.89,0,0,0,3.89,3.89"/><path class="cls-1" d="M88.26,32.49c0-.34,2.2-.84,3-.84a.87.87,0,0,1,.42.09l-.17,7.18h.82a7.8,7.8,0,0,0,.9-.06c0,1.25,0,1.6-.37,1.6H88c0-.37,0-.71,0-1.09s.5-.45,1.86-.45l.13-5.6a8.08,8.08,0,0,0-1.39.18,1.9,1.9,0,0,1-.25-1"/><path class="cls-1" d="M94.23,35.61h2.7c0,1,0,1.41-.29,1.41h-2.7c0-1,0-1.41.29-1.41"/><path class="cls-1" d="M98,32.47c0-.45,1.32-.82,2.64-.82,1.66,0,2.24.74,2.24,2.07,0,1.76-1.63,3-3,5.2h1.09a11.16,11.16,0,0,0,2-.16c0,1.36,0,1.7-.38,1.7H97.73a1.61,1.61,0,0,1-.06-.46,2.11,2.11,0,0,1,.38-1.3c1.23-2.16,2.89-3.48,2.89-4.7a.76.76,0,0,0-.87-.78,4.79,4.79,0,0,0-1.92.46,3.15,3.15,0,0,1-.2-1.21"/><path class="cls-1" d="M49.9,1.62H59V4.68H49.9ZM59,16.48v1.17H49.9V16.44l4.41-2.94ZM45.26,1.62h3v7A.81.81,0,0,0,48.3,9a.79.79,0,0,0,.34.53l3,1.72,1.55,1-4.51,3.09a.44.44,0,0,0-.11.09.78.78,0,0,0-.22.38,1.13,1.13,0,0,0-.09.41v7h-3v1.61H63.57V23.16h-2.9V16a.82.82,0,0,0-.37-.68l-4.63-2.94L60.3,9.5a.81.81,0,0,0,.37-.68V1.62h2.9V0H45.26Z"/><path class="cls-1" d="M41.37,32.49c0-.34,2.2-.84,3-.84a.87.87,0,0,1,.42.09l-.17,7.18h.82a7.52,7.52,0,0,0,.89-.06c0,1.25,0,1.6-.36,1.6H41.06c0-.37-.05-.71-.05-1.09s.5-.45,1.87-.45l.13-5.6a8.08,8.08,0,0,0-1.39.18,1.9,1.9,0,0,1-.25-1"/><path class="cls-1" d="M51.23,33.1C50.51,33.1,49,33,49,33l-.17,1.82a3.27,3.27,0,0,1,.63-.06c1.1,0,2.64.28,2.64,2.83s-1.23,4.31-3.4,4.31c-1.21,0-1.63-.41-1.63-.61A3.86,3.86,0,0,1,47.19,40a1.7,1.7,0,0,0,1.25.43c1.25,0,1.85-1.34,1.85-2.38,0-1.45-.29-1.89-1.89-1.89a5.49,5.49,0,0,0-1.29.16l.45-4.64h4.49c0,1.19-.09,1.45-.82,1.45"/><path class="cls-1" d="M53.21,35.61h2.7c0,1,0,1.41-.29,1.41h-2.7c0-1,0-1.41.29-1.41"/><path class="cls-1" d="M61.77,38.24c0,2.66-1.53,3.69-3.33,3.69-1.06,0-1.52-.3-1.52-.8a4.06,4.06,0,0,1,.21-1.2,1.94,1.94,0,0,0,1.31.42c1.05,0,1.54-.8,1.54-2S58.92,36.94,57.73,37V36c1.23-.49,1.82-1.28,1.82-2,0-.43-.08-.78-.77-.78a4.22,4.22,0,0,0-1.73.44v0a3.15,3.15,0,0,1-.2-1.21c0-.45,1-.82,2.55-.82s2,.78,2,1.78A3.16,3.16,0,0,1,60,36.07a1.94,1.94,0,0,1,1.76,2.17"/><path class="cls-1" d="M65.17,39.12c.6,0,.9-.91.9-3.55,0-1.57-.17-2.48-.84-2.48s-.92,1.2-.92,3.08c0,2.22.1,2.95.86,2.95m0-7.47c1.88,0,2.66,1.35,2.66,3.92,0,3.35-.57,5-2.69,5s-2.6-1.69-2.6-4.48.78-4.46,2.63-4.46"/></g></g></svg>