<svg width="40" height="40" version="1.1" xmlns="http://www.w3.org/2000/svg">
 <g transform="matrix(1.2048 0 0 1.2048 6.8675 -13.193)">
  <path d="m19.8 15.1h-17.8c-1.1 0-2 0.9-2 2v20.9c0 1.1 0.9 2 2 2h17.8c1.1 0 2-0.9 2-2v-20.9c0-1.1-0.9-2-2-2zm-18.8 2c0-0.6 0.4-1 1-1h17.8c0.6 0 1 0.4 1 1v16l-4.1-3.6c-0.2-0.2-0.5-0.2-0.7 0l-2.7 2.7-5.7-5.5c-0.2-0.2-0.5-0.2-0.7 0l-5.9 5.9zm0 20.9v-4l6.3-6.3 5.3 5.1-6.1 6.2h-4.5c-0.6 0-1-0.4-1-1zm18.8 1h-11.9l8.5-8.5 4.4 3.9v3.6c0 0.6-0.5 1-1 1z"/>
  <path d="m14.3 28.8c0.9-0.6 1.1-1.9 0.6-2.8-0.6-1-1.9-1.2-2.8-0.6h-0.1c-0.9 0.6-1.2 1.9-0.5 2.9 0.6 0.9 1.9 1.1 2.8 0.5zm-2-2.3c0.3-0.5 1-0.6 1.5-0.3s0.6 1 0.3 1.5-1 0.6-1.5 0.3c-0.5-0.4-0.6-1.1-0.3-1.5z"/>
 </g>
</svg>
