<svg width="40" height="40" fill="none" version="1.1" viewBox="0 0 40 40" xmlns="http://www.w3.org/2000/svg">
 <path d="m11.409 5v12.64c0 0.97237 1.1114 1.5261 1.8877 0.94056l3.1578-2.3818 3.1578 2.3818c0.77628 0.58556 1.8877 0.03181 1.8877-0.94056v-12.64h10.145c0.72301 0 1.3091 0.5861 1.3091 1.3091v27.382c0 0.72301-0.58608 1.3091-1.3091 1.3091h-23.291c-0.72299 0-1.3091-0.58608-1.3091-1.3091v-27.382c0-0.72299 0.5861-1.3091 1.3091-1.3091zm1.3091 0v12.377l3.0269-2.2831c0.41996-0.31677 0.99902-0.31677 1.419 0l3.0269 2.2831v-12.377z" clip-rule="evenodd" fill="#b58022" fill-rule="evenodd" stroke-width="1.3091"/>
</svg>
