<svg width="20" height="23" viewBox="0 0 20 23" fill="none" xmlns="http://www.w3.org/2000/svg">
<path fill-rule="evenodd" clip-rule="evenodd" d="M3.33334 0.083374V9.73892C3.33334 10.4817 4.18231 10.9047 4.77531 10.4574L7.18751 8.63796L9.59971 10.4574C10.1927 10.9047 11.0417 10.4817 11.0417 9.73892V0.083374H18.7917C19.344 0.083374 19.7917 0.531089 19.7917 1.08337V22C19.7917 22.5523 19.344 23 18.7917 23H0.999999C0.447714 23 0 22.5523 0 22V1.08337C0 0.531088 0.447715 0.083374 1 0.083374H3.33334ZM4.33334 0.083374V9.53824L6.64554 7.79418C6.96634 7.5522 7.40868 7.5522 7.72948 7.79418L10.0417 9.53824V0.083374H4.33334Z" fill="#B58022"/>
</svg>
