<svg width="40" height="40" version="1.1" xmlns="http://www.w3.org/2000/svg">
 <g transform="matrix(1.2048 0 0 1.2048 6.8675 -13.193)">
  <path d="m14 27.7c0.3-0.5 0.2-1.1-0.3-1.5-0.5-0.3-1.1-0.2-1.5 0.3-0.3 0.5-0.2 1.1 0.3 1.5 0.6 0.3 1.2 0.1 1.5-0.3z"/>
  <path d="m6.9 26.7c0.2-0.2 0.5-0.2 0.7 0l5.7 5.5 2.7-2.7c0.2-0.2 0.5-0.2 0.7 0l5.1 4.5v-16.9c0-1.1-0.9-2-2-2h-17.8c-1.1 0-2 0.9-2 2v16.5zm5.1-1.3c1-0.7 2.3-0.4 2.9 0.6 0.6 0.9 0.3 2.2-0.6 2.8s-2.2 0.4-2.9-0.5c-0.6-1-0.4-2.2 0.6-2.9z"/>
  <path d="m12.6 32.9-5.3-5.1-7.3 7.2v3c0 1.1 0.9 2 2 2h3.4zm3.8-2.4-9.5 9.5h12.9c1.1 0 2-0.9 2-2v-2.7z"/>
 </g>
</svg>
