<svg width="40" height="40" fill="none" version="1.1" xmlns="http://www.w3.org/2000/svg">
 <g transform="matrix(1.2062 0 0 1.2062 6.8571 -13.221)">
  <rect x=".5" y="15.583" width="20.792" height="23.917" rx="1.5" stroke="#fff"/>
  <path d="m14.309 28.755a2.05 2.05 0 1 1-2.278-3.408 2.05 2.05 0 0 1 2.278 3.408zm-0.555-2.578a1.05 1.05 0 1 0-1.167 1.746 1.05 1.05 0 0 0 1.167-1.746zm7.246 7.063-4.33-3.78a0.5 0.5 0 0 0-0.68 0.025l-2.73 2.725-5.665-5.5a0.5 0.5 0 0 0-0.7 0l-5.895 5.905v1.415l6.255-6.255 5.3 5.14-6.055 6.07a0.5 0.5 0 0 0 0.353 0.85 0.5 0.5 0 0 0 0.352-0.145l9.16-9.17 4.635 4.045z" clip-rule="evenodd" fill="#fff" fill-rule="evenodd"/>
 </g>
</svg>
