<svg width="35" height="28" viewBox="0 0 35 28" fill="none" xmlns="http://www.w3.org/2000/svg">
<rect x="1.44997" y="3.14859" width="16.0765" height="23.5331" rx="1" transform="rotate(-6.06524 1.44997 3.14859)" stroke="white"/>
<path d="M26.6798 5.02516L26.0633 4.82667L26.0274 5.47336L25.0054 23.8683L24.9817 24.2956L25.4002 24.385L28.1737 24.9774C28.6998 25.0898 29.2205 24.7659 29.3522 24.2443L33.4106 8.17533C33.5397 7.66396 33.2495 7.1402 32.7475 6.97857L26.6798 5.02516Z" stroke="white"/>
<path d="M18.3511 3.46817L17.7972 3.46817L17.8537 4.01918L19.8975 23.947L19.9416 24.377L20.3735 24.3956L23.6205 24.535C24.1624 24.5582 24.624 24.1453 24.6611 23.6042L25.9668 4.53649C26.0064 3.95867 25.5483 3.46817 24.9692 3.46817L18.3511 3.46817Z" stroke="white"/>
</svg>
