<svg width="40" height="40" fill="none" version="1.1" viewBox="0 0 40 40" xmlns="http://www.w3.org/2000/svg">
 <g transform="matrix(.9057 0 0 .9057 4.1545 -3.548)" stroke="#fff">
  <rect transform="rotate(-6.0652)" x="-.15876" y="15.217" width="16.076" height="23.533" rx="1"/>
  <path d="m26.68 17.025-0.6165-0.19849-0.0359 0.64669-1.022 18.395-0.0237 0.4273 3.192 0.6818c0.5261 0.1124 1.0468-0.2115 1.1785-0.7331l4.0584-16.069c0.1291-0.51137-0.1611-1.0351-0.6631-1.1968z"/>
  <path d="m18.351 15.468h-0.5539l0.0565 0.55101 2.0438 19.928 0.0441 0.43 0.4319 0.0186 3.247 0.1394c0.5419 0.0232 1.0035-0.3897 1.0406-0.9308l1.3057-19.068c0.0396-0.57782-0.4185-1.0683-0.9976-1.0683z"/>
 </g>
</svg>
