<svg width="40" height="40" fill="none" version="1.1" viewBox="0 0 40 40" xmlns="http://www.w3.org/2000/svg">
 <g transform="matrix(1.7188 0 0 1.7188 5 -35)" fill="#fff">
  <path d="m16.727 31.273h-16c-0.19288 0-0.37787 0.07662-0.51426 0.21301-0.13639 0.13639-0.21301 0.32137-0.21301 0.51426 1.68e-8 0.19288 0.076624 0.37787 0.21301 0.51426 0.13639 0.13639 0.32138 0.21301 0.51426 0.21301h16z"/>
  <path d="m17.454 31.989c-3e-3 -0.18893-0.0794-0.36927-0.2131-0.50284l-7.2656-7.2656-0.00713-0.0071c-0.13636-0.13639-0.32131-0.21303-0.51417-0.21306-0.19289 0-0.37787 0.07662-0.51426 0.21301-0.13639 0.13639-0.21302 0.32137-0.21302 0.51426 3e-5 0.19288 0.07667 0.37786 0.21307 0.51423l6.7585 6.7585-6.7514 6.7514c-0.00239 0.0024-0.00476 0.0048-0.00712 0.0072-0.13638 0.1363-0.21302 0.3213-0.21305 0.5141 0 0.1929 0.07663 0.3779 0.21302 0.5143s0.32137 0.213 0.51426 0.213c0.19287 0 0.37783-0.0767 0.5142-0.2131l7.2727-7.2727c0.0689-0.06887 0.1233-0.15087 0.1599-0.24116 0.0366-0.09028 0.0547-0.18699 0.0532-0.2844z"/>
 </g>
</svg>
