<svg width="327" height="73" viewBox="0 0 327 73" fill="none" xmlns="http://www.w3.org/2000/svg">
<path d="M24.2105 14L1 37.561L24.2105 60L33.0526 43.1707L64 37.561L33.0526 28.5854L24.2105 14Z" stroke="#B58022" stroke-width="2" stroke-linejoin="round"/>
<path d="M43.9783 3.28571L35.2233 1.28022C34.5971 1.13677 34.0005 1.6103 34.0486 2.25091C34.4685 7.83806 37.7268 17 48.413 17L58.3913 6.71429H136" stroke="#B58022" stroke-width="2" stroke-linejoin="round"/>
<path d="M42.9783 69.8571L34.21 71.7402C33.5873 71.8739 33.0003 71.4015 33.0536 70.7669C33.4935 65.5236 36.7678 57 47.413 57L57.3913 66.6429H135" stroke="#B58022" stroke-width="2" stroke-linejoin="round"/>
<path d="M302.789 14L326 37.561L302.789 60L293.947 43.1707L263 37.561L293.947 28.5854L302.789 14Z" stroke="#B58022" stroke-width="2" stroke-linejoin="round"/>
<path d="M282.976 3.28571L291.778 1.27873C292.404 1.13599 293 1.60945 292.951 2.24965C292.53 7.83667 289.257 17 278.522 17L268.498 6.71429H136" stroke="#B58022" stroke-width="2" stroke-linejoin="round"/>
<path d="M284.047 69.8571L292.79 71.7394C293.412 71.8735 294 71.401 293.947 70.7662C293.507 65.5229 290.241 57 279.623 57L269.67 66.6429H134" stroke="#B58022" stroke-width="2" stroke-linejoin="round"/>
</svg>
