<svg width="40" height="40" fill="none" version="1.1" viewBox="0 0 40 40" xmlns="http://www.w3.org/2000/svg">
 <path d="m33.739 32.256-6.986-7.3839c1.7962-2.17 2.7804-4.9004 2.7804-7.7428 0-6.641-5.3165-12.044-11.851-12.044s-11.851 5.4031-11.851 12.044c0 6.641 5.3166 12.044 11.851 12.044 2.4532 0 4.7911-0.75203 6.7897-2.1794l7.0391 7.44c0.29428 0.31054 0.68998 0.48176 1.114 0.48176 0.40137 0 0.78216-0.15557 1.0712-0.43836 0.61421-0.60064 0.6339-1.5965 0.04281-2.2213zm-16.057-24.029c4.8301 0 8.7596 3.9934 8.7596 8.9021 0 4.9088-3.9294 8.9022-8.7596 8.9022s-8.7596-3.9934-8.7596-8.9022c0-4.9087 3.9295-8.9021 8.7596-8.9021z" fill="#fff" stroke-width="1.4915"/>
</svg>
