<svg xmlns="http://www.w3.org/2000/svg" viewBox="0 0 115.26 43.45"><defs><style>.cls-1{fill:#fff;}</style></defs><title>game-condition-COOP</title><g id="Livello_2" data-name="Livello 2"><g id="Livello_1-2" data-name="Livello 1"><path class="cls-1" d="M30,13.42H23.89C22,13.42,20.75,15,20.75,17v7.81h2v-7.6h1v7.6h6.47v-7.6h1v7.6h2V17c0-1.81-1.06-3.59-3.18-3.59"/><path class="cls-1" d="M27,12.64A3.62,3.62,0,1,0,23.35,9,3.62,3.62,0,0,0,27,12.64"/><path class="cls-1" d="M8.64,7.78A3.89,3.89,0,1,0,4.75,3.89,3.89,3.89,0,0,0,8.64,7.78"/><path class="cls-1" d="M13.2,8.59H4.48c-2.76,0-4.48,2.24-4.48,5V24.77H3.07V14H4V24.77h9.69V14h.95V24.77h3V13.7c0-2.58-1.52-5.11-4.54-5.11"/><path class="cls-1" d="M8.42,32.49c0-.34,2.2-.84,3-.84a.94.94,0,0,1,.43.09l-.18,7.18h.82a7.58,7.58,0,0,0,.9-.06c0,1.25,0,1.6-.37,1.6H8.11c0-.37,0-.71,0-1.09s.5-.45,1.86-.45l.14-5.6a8.11,8.11,0,0,0-1.4.18,1.9,1.9,0,0,1-.25-1"/><path class="cls-1" d="M16.92,33.81a14.54,14.54,0,0,0-1.63,3.62H16.7Zm2.32,3.55a1.13,1.13,0,0,1,.07.56c0,.56-.17,1-.54,1h-.43v1c0,.47,0,.47-1.64.47V39H14.45a2.21,2.21,0,0,1-.55-1.57c0-.53,2.12-5,2.83-5.58a1.08,1.08,0,0,1,.7-.26,2,2,0,0,1,1,.22l-.05,5.66a6,6,0,0,0,.9-.07"/><path class="cls-1" d="M25,35.61c0,1,0,1.41-.3,1.41H23.17v1.57c0,.3-.44.3-1.41.3V37H19.9c0-1,0-1.41.29-1.41h1.57V34c0-.29.44-.29,1.41-.29v1.86Z"/><path class="cls-1" d="M49.89,1.62H59V4.68H49.89ZM59,16.48v1.17H49.89V16.44L54.3,13.5ZM45.25,1.62h3v7a.81.81,0,0,0,.08.34.83.83,0,0,0,.34.53l3,1.72,1.55,1-4.51,3.09a.28.28,0,0,0-.1.09.89.89,0,0,0-.23.38,1.39,1.39,0,0,0-.09.41v7h-3v1.61H63.56V23.16H60.67V16a.85.85,0,0,0-.38-.68l-4.62-2.94L60.29,9.5a.82.82,0,0,0,.38-.68V1.62h2.89V0H45.25Z"/><path class="cls-1" d="M40.68,39.86c0-.18.14-.3.43-.37a8.28,8.28,0,0,1,1.49-.09l.14-5.75a7.91,7.91,0,0,0-.91.08l-.53.1a2,2,0,0,1-.26-1c0-.11.19-.23.58-.36A10.66,10.66,0,0,1,43,32.11,6.34,6.34,0,0,1,44.09,32a1.1,1.1,0,0,1,.25,0,.3.3,0,0,1,.18.07l-.18,7.35h.84a5.12,5.12,0,0,0,.56,0l.36,0c0,.49,0,.83,0,1a1.08,1.08,0,0,1-.09.44.26.26,0,0,1-.25.14h-5C40.7,40.58,40.68,40.21,40.68,39.86Z"/><path class="cls-1" d="M47.55,42.35A1.49,1.49,0,0,1,47,42.1a.42.42,0,0,1-.17-.27,5.26,5.26,0,0,1,0-.76,2.53,2.53,0,0,1,.14-.59,1.77,1.77,0,0,0,1.28.43,1.52,1.52,0,0,0,1-.37,2.22,2.22,0,0,0,.64-.93,3.08,3.08,0,0,0,.22-1.14,3.65,3.65,0,0,0-.15-1.2,1,1,0,0,0-.55-.58,3.22,3.22,0,0,0-1.23-.17,5.52,5.52,0,0,0-1.34.16L47.39,32H52a5,5,0,0,1-.06.93.61.61,0,0,1-.22.42,1,1,0,0,1-.55.12l-1.27,0-1.08,0-.18,1.87a3.37,3.37,0,0,1,.66-.06,3.11,3.11,0,0,1,1.92.58A2.76,2.76,0,0,1,52,38.05a5.14,5.14,0,0,1-.92,3.22,3,3,0,0,1-2.56,1.19A3.59,3.59,0,0,1,47.55,42.35Z"/><path class="cls-1" d="M52.92,36.3c0-.2.12-.29.26-.29h2.76a8.74,8.74,0,0,1,0,1.14c0,.2-.11.3-.25.3H52.88A9.61,9.61,0,0,1,52.92,36.3Z"/><path class="cls-1" d="M57,41.65a2.71,2.71,0,0,1,.1-.81c.06-.22.1-.36.11-.41a1.29,1.29,0,0,0,.58.32,2.42,2.42,0,0,0,.76.12,1.38,1.38,0,0,0,1.19-.56,2.62,2.62,0,0,0,.4-1.53,1.14,1.14,0,0,0-.64-1.1,3.31,3.31,0,0,0-1.66-.28v-1a3.37,3.37,0,0,0,1.38-.92,1.74,1.74,0,0,0,.48-1.14,1,1,0,0,0-.15-.59c-.1-.14-.31-.2-.63-.2a4,4,0,0,0-.93.12,3.59,3.59,0,0,0-.86.34,3,3,0,0,1-.21-1.21c0-.24.24-.44.73-.6A6.1,6.1,0,0,1,59.49,32a2.2,2.2,0,0,1,1.58.49,1.76,1.76,0,0,1,.51,1.32,3.07,3.07,0,0,1-.4,1.56,3.72,3.72,0,0,1-1.06,1.14,2,2,0,0,1,1.31.65,2.31,2.31,0,0,1,.49,1.57A3.8,3.8,0,0,1,61,41.53a3.36,3.36,0,0,1-2.46.93C57.49,42.46,57,42.19,57,41.65Z"/><path class="cls-1" d="M63.72,40.56a2.78,2.78,0,0,1-.8-1.52,11.71,11.71,0,0,1-.22-2.52,7.11,7.11,0,0,1,.65-3.43,2.17,2.17,0,0,1,2-1.13,2.29,2.29,0,0,1,2.06,1,5.63,5.63,0,0,1,.65,3,14.08,14.08,0,0,1-.24,2.9A3.15,3.15,0,0,1,67,40.53a2.35,2.35,0,0,1-1.66.56A2.38,2.38,0,0,1,63.72,40.56Zm2.4-1.79A12,12,0,0,0,66.35,36,7.48,7.48,0,0,0,66.16,34c-.13-.41-.35-.62-.68-.62s-.64.26-.77.78a10.79,10.79,0,0,0-.19,2.39c0,.81,0,1.42.06,1.84a2.11,2.11,0,0,0,.26.91.66.66,0,0,0,.58.28C65.74,39.61,66,39.33,66.12,38.77Z"/><path class="cls-1" d="M76.51,40.14a2.07,2.07,0,0,1,.07-.62,2.6,2.6,0,0,1,.31-.66,20.4,20.4,0,0,1,1.55-2.23,14.28,14.28,0,0,0,1-1.41,2,2,0,0,0,.32-1,.75.75,0,0,0-.23-.58.92.92,0,0,0-.63-.2,4.49,4.49,0,0,0-1,.13,3.08,3.08,0,0,0-.91.32,2.82,2.82,0,0,1-.2-1.18c0-.22.27-.41.8-.57a6.35,6.35,0,0,1,1.81-.24,2.35,2.35,0,0,1,1.7.51,2.08,2.08,0,0,1,.52,1.53,3,3,0,0,1-.39,1.48A15.23,15.23,0,0,1,80,37.18c-.61.79-1.06,1.43-1.35,1.9h1.1A11.25,11.25,0,0,0,81.11,39a4.71,4.71,0,0,0,.62-.09c0,.5,0,.86,0,1.07a1.59,1.59,0,0,1-.09.46.27.27,0,0,1-.25.14h-4.8A1.44,1.44,0,0,1,76.51,40.14Z"/><path class="cls-1" d="M84.73,43.3a.73.73,0,0,1-.17-.56v-9a3.73,3.73,0,0,1,1-.41,4.13,4.13,0,0,1,1.15-.15,2.26,2.26,0,0,1,1.74.63,3.41,3.41,0,0,1,.6,2.31A12.29,12.29,0,0,1,88.79,39a2.6,2.6,0,0,1-.66,1.38,1.44,1.44,0,0,1-1,.36,1.5,1.5,0,0,1-1-.27v2.86a2.54,2.54,0,0,1-.83.13A1,1,0,0,1,84.73,43.3Zm2.19-4.2a2.68,2.68,0,0,0,.23-.89,16.1,16.1,0,0,0,.09-2,6.87,6.87,0,0,0-.06-1.05,1,1,0,0,0-.2-.49.53.53,0,0,0-.36-.13.68.68,0,0,0-.45.18V39a.54.54,0,0,0,.42.27A.42.42,0,0,0,86.92,39.1Z"/><path class="cls-1" d="M89.82,30.64a.77.77,0,0,1,.13-.5.69.69,0,0,1,.43-.17,8.49,8.49,0,0,1,1.05,0V40.3c0,.11,0,.18-.07.21a1.16,1.16,0,0,1-.47.06l-1.07,0Z"/><path class="cls-1" d="M93.21,40.57a1.29,1.29,0,0,1-.72-.65,3.13,3.13,0,0,1-.28-1.45,2.86,2.86,0,0,1,.47-1.88,1.56,1.56,0,0,1,1.22-.51,3,3,0,0,1,.48.05,1,1,0,0,1,.44.17v-1a.54.54,0,0,0-.13-.42.66.66,0,0,0-.47-.13,5.88,5.88,0,0,0-.9.08,5.1,5.1,0,0,0-.86.22,2.06,2.06,0,0,1-.22-.93.79.79,0,0,1,.06-.29.49.49,0,0,1,.15-.21,2.06,2.06,0,0,1,.78-.29,6.35,6.35,0,0,1,1.38-.13,2,2,0,0,1,1.41.39A1.86,1.86,0,0,1,96.43,35v.69c0,2.36,0,3.91-.07,4.62a4.07,4.07,0,0,1-2.09.46A3,3,0,0,1,93.21,40.57Zm1.59-1.3c0-.22,0-.85,0-1.88a.53.53,0,0,0-.39-.14.43.43,0,0,0-.39.26,2.17,2.17,0,0,0-.13.92,2,2,0,0,0,.1.76.38.38,0,0,0,.38.22A.53.53,0,0,0,94.8,39.27Z"/><path class="cls-1" d="M96.84,43.2a.61.61,0,0,1-.29-.54,1.94,1.94,0,0,1,.06-.46,1.63,1.63,0,0,1,.14-.41,1.13,1.13,0,0,0,.41.18,2.2,2.2,0,0,0,.58.07.55.55,0,0,0,.47-.27,2.36,2.36,0,0,0,.27-1l-1.6-7.06c0-.12,0-.18,0-.2A.16.16,0,0,1,97,33.4a1.7,1.7,0,0,1,.5,0h1l.44,2.54c.09.52.16,1.09.23,1.71s.11,1,.13,1.2c0-.18,0-.58.11-1.19s.13-1.19.2-1.72l.29-2.09a.49.49,0,0,1,.12-.33.81.81,0,0,1,.39-.1l1.2,0-1.63,7.58a7,7,0,0,1-.45,1.5,1.69,1.69,0,0,1-.64.74,1.86,1.86,0,0,1-1,.23A2.09,2.09,0,0,1,96.84,43.2Z"/><path class="cls-1" d="M105.9,38.76a3.71,3.71,0,0,1,.13,1.08c0,.28-.19.5-.59.65a3.71,3.71,0,0,1-1.47.24,2,2,0,0,1-1.66-.74,4.52,4.52,0,0,1-.58-2.68,7.52,7.52,0,0,1,.34-2.56,2.26,2.26,0,0,1,.89-1.24,2.63,2.63,0,0,1,1.32-.31c1.24,0,1.85.78,1.85,2.36a8.37,8.37,0,0,1-.2,2.06,15.28,15.28,0,0,1-2.52.2,2.29,2.29,0,0,0,.24,1,.79.79,0,0,0,.71.31A3.59,3.59,0,0,0,105.9,38.76Zm-2.31-3.69a5.9,5.9,0,0,0-.18,1.49,2.94,2.94,0,0,0,1.09-.13,3.16,3.16,0,0,0,.07-.76,2.57,2.57,0,0,0-.1-.87.4.4,0,0,0-.4-.21Q103.74,34.59,103.59,35.07Z"/><path class="cls-1" d="M106.92,33.85a3.55,3.55,0,0,1,2-.65,1.29,1.29,0,0,1,.77.16.67.67,0,0,1,.2.56,2.68,2.68,0,0,1-.16.93,1.12,1.12,0,0,0-.53-.12,1,1,0,0,0-.32.06,1.23,1.23,0,0,0-.32.17V40.3a.23.23,0,0,1-.08.21,1.16,1.16,0,0,1-.47.06l-1.09,0Z"/><path class="cls-1" d="M110.32,39.88a1.85,1.85,0,0,1,.27-.9,2.66,2.66,0,0,0,1.27.32.86.86,0,0,0,.57-.17.58.58,0,0,0,.18-.45,1.25,1.25,0,0,0-.33-.82L111,36.53a2.74,2.74,0,0,1-.54-.78,2.06,2.06,0,0,1-.17-.76,1.63,1.63,0,0,1,.57-1.31,2.77,2.77,0,0,1,1.82-.48,2.59,2.59,0,0,1,1.43.26.8.8,0,0,1,.36.65,1.23,1.23,0,0,1-.08.4,1.28,1.28,0,0,1-.23.37,2.56,2.56,0,0,0-1.26-.31c-.46,0-.7.15-.7.45a.64.64,0,0,0,.09.31,2.35,2.35,0,0,0,.35.42l1.07,1.08a3.38,3.38,0,0,1,.57.88,2.4,2.4,0,0,1,.16.94,1.92,1.92,0,0,1-.66,1.53,2.62,2.62,0,0,1-1.77.55C110.89,40.73,110.32,40.45,110.32,39.88Z"/><polygon class="cls-1" points="86.56 18.06 89.43 18.06 89.43 24.78 90.18 24.78 91.06 24.78 99.88 24.78 100.65 24.78 101.52 24.78 101.52 18.06 104.33 18.06 104.33 16.49 86.56 16.49 86.56 18.06"/><path class="cls-1" d="M82.34,8.59H78.59a3,3,0,0,0-3,3V24.78h9.69V16.5s0,0,0-.06V11.56a3,3,0,0,0-3-3"/><path class="cls-1" d="M80.47,7.78a3.89,3.89,0,1,0-3.89-3.89,3.89,3.89,0,0,0,3.89,3.89"/><path class="cls-1" d="M112.29,8.59h-3.75a3,3,0,0,0-3,3V24.78h9.69V11.56a3,3,0,0,0-3-3"/><path class="cls-1" d="M110.41,7.78a3.89,3.89,0,1,0-3.89-3.89,3.89,3.89,0,0,0,3.89,3.89"/></g></g></svg>